# Created by Open3D 
# object name: front_license_plate
# number of vertices: 72
# number of triangles: 75
v 0.0019085 1.98718 -0.128942
vn 0 0.999969 0
v 0.126863 1.98466 -0.129008
vn 0.0581683 0.998291 -3.05185e-05
v 0.0019085 1.98718 -0.222029
vn 0 1 0
v -0.123052 1.98466 -0.129008
vn -0.0581683 0.998291 -3.05185e-05
v 0.126951 1.98466 -0.22198
vn 0.0582293 0.998291 0.000122074
v 0.256982 1.97215 -0.127853
vn 0.0893277 0.926878 -0.364544
v 0.257554 1.97206 -0.129068
vn 0.114444 0.993378 -0.00921659
v -0.12314 1.98466 -0.22198
vn -0.0706809 0.997497 0.000183111
v -0.25317 1.97215 -0.127853
vn -0.0893277 0.926878 -0.364544
v -0.253743 1.97206 -0.129068
vn -0.114658 0.993347 -0.00921659
v 0.257681 1.97204 -0.221903
vn 0.114475 0.993378 0.00927763
v -0.253869 1.97204 -0.221903
vn -0.114475 0.993378 0.0093997
v 0.258698 1.97188 -0.129552
vn -0.194433 0.980895 -0.000427259
v 0.257114 1.97214 -0.223113
vn 0.0894192 0.927213 0.363598
v -0.123145 1.98466 -0.223124
vn -0.0632649 0.859859 0.506546
v -0.253303 1.97214 -0.223113
vn -0.0893887 0.927061 0.364025
v -0.254881 1.97188 -0.129552
vn 0.192846 0.981201 -0.000457778
v 0.258824 1.97186 -0.221413
vn -0.19364 0.981048 -0.000457778
v -0.255013 1.97186 -0.221413
vn 0.19364 0.981048 -0.000427259
v 0.257284 1.97314 -0.12683
vn 0.0899991 0.934477 -0.344401
v 0.126956 1.98569 -0.126835
vn 0.0581683 0.998291 -0.00231941
v 0.257417 1.97312 -0.125801
vn 0.0962859 0.994995 0.0260018
v 0.126951 1.98569 -0.123249
vn 0.0559709 0.971831 0.228858
v 0.0019085 1.98821 -0.12683
vn 0 0.999969 0
v 0.2591 1.97285 -0.123244
vn 0.0966521 0.995086 0.0206305
v 0.0019085 1.98821 -0.123249
vn 0 0.97351 0.228553
v 0.259231 1.97283 -0.122221
vn 0.0966216 0.995209 0.013947
v -0.12314 1.98569 -0.123249
vn -0.0559709 0.971831 0.228797
v 0.126858 1.98466 -0.121203
vn 0.0501114 0.892361 0.4485
v -0.123046 1.98466 -0.121203
vn -0.0501114 0.892422 0.448378
v -0.123145 1.98569 -0.126835
vn -0.0581683 0.998291 -0.00231941
v 0.0019085 1.98718 -0.121198
vn 0 0.894894 0.446211
v -0.25542 1.97283 -0.122221
vn -0.0966216 0.995209 0.013947
v -0.253605 1.97312 -0.125801
vn -0.0962859 0.994995 0.0259102
v -0.253473 1.97314 -0.12683
vn -0.0899991 0.934477 -0.344401
v -0.255288 1.97285 -0.123244
vn -0.0966521 0.995086 0.0205695
v 0.0019085 1.98821 -0.224141
vn -3.05185e-05 0.999969 0.00256355
v -0.123233 1.98568 -0.224147
vn -0.0538652 0.923826 0.378979
v 0.127044 1.98568 -0.224147
vn 0.0581378 0.998291 0.00250252
v 0.0019085 1.98821 -0.227727
vn 0 0.999969 0
v 0.257417 1.97312 -0.224141
vn 0.0900601 0.934935 0.34312
v 0.12705 1.98568 -0.227733
vn 0.0710166 0.997467 -0.000122074
v -0.123239 1.98568 -0.227733
vn -0.0710166 0.997467 -0.000122074
v -0.253605 1.97312 -0.224141
vn -0.0900601 0.934965 0.343028
v 0.257554 1.9731 -0.225164
vn 0.0963469 0.994995 -0.025605
v -0.253743 1.9731 -0.225164
vn -0.0963469 0.994995 -0.0255135
v 0.259242 1.97283 -0.227722
vn 0.0967437 0.995086 -0.0204779
v -0.255431 1.97283 -0.227722
vn -0.0967437 0.995086 -0.0204169
v 0.12705 1.98568 -0.228756
vn 0.0967132 0.9953 -3.05185e-05
v -0.123239 1.98568 -0.228756
vn -0.0967132 0.9953 -3.05185e-05
v 0.25938 1.97281 -0.22875
vn 0.0967742 0.995239 -0.00863674
v -0.255568 1.97281 -0.22875
vn -0.0967742 0.995239 -0.00863674
v 0.259892 1.97272 -0.129415
vn -0.19953 0.979888 -0.000427259
v 0.260023 1.97271 -0.221551
vn -0.198218 0.980132 -0.000457778
v 0.260925 1.97256 -0.129277
vn 0.156743 0.98761 3.05185e-05
v 0.261052 1.97254 -0.221683
vn 0.156835 0.98761 3.05185e-05
v 0.263499 1.97215 -0.1276
vn 0.156957 0.987579 3.05185e-05
v 0.263632 1.97214 -0.223349
vn 0.156957 0.987579 3.05185e-05
v 0.264533 1.97199 -0.127462
vn 0.544389 0.838801 0.000579852
v 0.264666 1.97197 -0.223481
vn 0.54445 0.838771 0.000579852
v 0.265529 1.9708 -0.223613
vn 0.804987 0.593249 0.000976592
v 0.265397 1.97082 -0.12733
vn 0.804895 0.593402 0.000976592
v -0.25608 1.97272 -0.129415
vn 0.198614 0.980071 -0.000457778
v -0.256212 1.97271 -0.221551
vn 0.198218 0.980132 -0.000457778
v -0.257114 1.97256 -0.129277
vn -0.156743 0.98761 3.05185e-05
v -0.257241 1.97254 -0.221683
vn -0.156835 0.98761 3.05185e-05
v -0.259688 1.97215 -0.1276
vn -0.156987 0.987579 3.05185e-05
v -0.25982 1.97214 -0.223349
vn -0.156957 0.987579 3.05185e-05
v -0.260722 1.97199 -0.127462
vn -0.544389 0.838801 0.000579852
v -0.260854 1.97197 -0.223481
vn -0.54445 0.838771 0.000579852
v -0.261717 1.9708 -0.223613
vn -0.804987 0.593249 0.000976592
v -0.261586 1.97082 -0.12733
vn -0.804895 0.593402 0.000976592
f 1//1 2//2 3//3
f 1//1 3//3 4//4
f 2//2 5//5 3//3
f 6//6 7//7 2//2
f 4//4 3//3 8//8
f 9//9 4//4 10//10
f 2//2 7//7 5//5
f 4//4 8//8 10//10
f 7//7 11//11 5//5
f 10//10 8//8 12//12
f 7//7 13//13 11//11
f 11//11 14//14 5//5
f 8//8 15//15 16//16
f 10//10 12//12 17//17
f 12//12 8//8 16//16
f 13//13 18//18 11//11
f 17//17 12//12 19//19
f 20//20 6//6 21//21
f 22//22 20//20 21//21
f 23//23 22//22 21//21
f 23//23 21//21 24//24
f 25//25 22//22 23//23
f 26//26 23//23 24//24
f 27//27 25//25 23//23
f 26//26 24//24 28//28
f 29//29 23//23 26//26
f 29//29 27//27 23//23
f 30//30 26//26 28//28
f 28//28 24//24 31//31
f 32//32 29//29 26//26
f 33//33 30//30 28//28
f 32//32 26//26 30//30
f 28//28 31//31 34//34
f 35//35 31//31 9//9
f 33//33 28//28 36//36
f 34//34 31//31 35//35
f 36//36 28//28 34//34
f 15//15 37//37 38//38
f 37//37 39//39 40//40
f 37//37 40//40 38//38
f 16//16 15//15 38//38
f 14//14 41//41 39//39
f 39//39 42//42 40//40
f 38//38 40//40 43//43
f 16//16 38//38 44//44
f 41//41 45//45 39//39
f 39//39 45//45 42//42
f 38//38 43//43 46//46
f 44//44 38//38 46//46
f 45//45 47//47 42//42
f 46//46 43//43 48//48
f 47//47 49//49 42//42
f 48//48 43//43 50//50
f 47//47 51//51 49//49
f 48//48 50//50 52//52
f 53//53 18//18 13//13
f 53//53 54//54 18//18
f 55//55 54//54 53//53
f 55//55 56//56 54//54
f 57//57 56//56 55//55
f 57//57 58//58 56//56
f 59//59 58//58 57//57
f 59//59 60//60 58//58
f 61//61 60//60 59//59
f 61//61 59//59 62//62
f 63//63 19//19 64//64
f 65//65 63//63 64//64
f 63//63 17//17 19//19
f 65//65 64//64 66//66
f 67//67 65//65 66//66
f 67//67 66//66 68//68
f 69//69 67//67 68//68
f 69//69 68//68 70//70
f 71//71 69//69 70//70
f 71//71 72//72 69//69
