# Created by Open3D 
# object name: left_tail_light
# number of vertices: 194
# number of triangles: 328
v -0.711942 -2.73407 0.233409
vn -0.692038 -0.705771 0.151494
v -0.709241 -2.73267 0.25245
vn -0.695914 -0.69335 0.186926
v -0.725368 -2.71951 0.233409
vn -0.737449 -0.664235 0.122105
v -0.678359 -2.76385 0.233409
vn -0.660024 -0.745354 0.0935392
v -0.731511 -2.71214 0.235053
vn -0.737327 -0.652852 0.173406
v -0.673321 -2.76483 0.255678
vn -0.612476 -0.774285 0.158971
v -0.73601 -2.70586 0.239552
vn -0.737297 -0.652943 0.173223
v -0.674966 -2.76682 0.233585
vn -0.605396 -0.787622 0.114475
v -0.707845 -2.72921 0.267322
vn -0.693014 -0.663686 0.281442
v -0.737655 -2.70238 0.245701
vn -0.737175 -0.653157 0.173009
v -0.639524 -2.79001 0.235741
vn -0.517594 -0.853023 0.0663167
v -0.737655 -2.70124 0.24998
vn -0.734733 -0.65099 0.190619
v -0.67397 -2.7597 0.272332
vn -0.671407 -0.697775 0.249519
v -0.639435 -2.79017 0.233409
vn -0.518265 -0.854335 0.0383923
v -0.640046 -2.7874 0.259143
vn -0.532731 -0.836695 0.126835
v -0.737655 -2.69804 0.26004
vn -0.731803 -0.64919 0.207282
v -0.707575 -2.72685 0.272332
vn -0.692434 -0.63863 0.335643
v -0.627027 -2.7971 0.233409
vn -0.474013 -0.87814 0.0644856
v -0.618843 -2.80107 0.237094
vn -0.463118 -0.882962 0.0766015
v -0.67309 -2.76052 0.272332
vn -0.566881 -0.797754 0.205451
v -0.736995 -2.69798 0.262509
vn -0.726737 -0.631794 0.269509
v -0.725368 -2.70569 0.272332
vn -0.713157 -0.587237 0.382763
v -0.614741 -2.8025 0.245701
vn -0.487167 -0.87112 0.0615864
v -0.640722 -2.78406 0.272332
vn -0.550249 -0.815638 0.178686
v -0.614741 -2.80161 0.26004
vn -0.490249 -0.869747 0.0557878
v -0.627027 -2.79261 0.272332
vn -0.505905 -0.844203 0.177007
v -0.731511 -2.69917 0.270688
vn -0.715445 -0.574023 0.398236
v -0.615247 -2.80119 0.261937
vn -0.492538 -0.864101 0.103244
v -0.620884 -2.79644 0.270688
vn -0.493698 -0.856777 0.148808
v -0.616385 -2.79981 0.266189
vn -0.493484 -0.857051 0.148045
v -0.713036 -2.73446 0.223162
vn -0.703604 -0.704978 0.0888089
v -0.714752 -2.73498 0.205832
vn -0.692129 -0.71868 0.0664388
v -0.676219 -2.76792 0.206959
vn -0.597369 -0.800684 0.0449538
v -0.723316 -2.7227 0.223162
vn -0.736595 -0.670217 0.0904569
v -0.675274 -2.76962 0.176572
vn -0.591418 -0.806116 0.019715
v -0.67546 -2.76725 0.223162
vn -0.600116 -0.797601 0.0605182
v -0.73529 -2.71306 0.205144
vn -0.727531 -0.680898 0.0840175
v -0.638478 -2.7919 0.207971
vn -0.503006 -0.863613 0.0332652
v -0.714939 -2.73618 0.176055
vn -0.686026 -0.727287 0.0198065
v -0.733656 -2.71669 0.175752
vn -0.706748 -0.707053 -0.0227668
v -0.729465 -2.71639 0.221518
vn -0.726157 -0.676748 0.120975
v -0.636015 -2.79428 0.176946
vn -0.496933 -0.867458 0.0237129
v -0.714488 -2.73682 0.161705
vn -0.686117 -0.727287 0.0155339
v -0.639045 -2.79087 0.223162
vn -0.513047 -0.857509 0.0379345
v -0.735608 -2.7117 0.210875
vn -0.726432 -0.676565 0.120548
v -0.674333 -2.77053 0.161705
vn -0.588214 -0.808557 0.0126652
v -0.612562 -2.80542 0.208626
vn -0.462569 -0.886105 0.0281991
v -0.733557 -2.71646 0.173998
vn -0.646321 -0.758751 -0.080813
v -0.72127 -2.72945 0.161705
vn -0.7275 -0.684561 0.0455031
v -0.624981 -2.79849 0.223162
vn -0.467452 -0.883541 0.0282907
v -0.733964 -2.71237 0.217019
vn -0.72631 -0.676656 0.120579
v -0.634535 -2.7955 0.161705
vn -0.495834 -0.868129 0.021424
v -0.610813 -2.80735 0.177144
vn -0.460952 -0.88699 0.027131
v -0.731912 -2.71837 0.167849
vn -0.718619 -0.694998 0.0222175
v -0.727413 -2.72313 0.16335
vn -0.717338 -0.696524 0.0160222
v -0.62293 -2.80151 0.161705
vn -0.46086 -0.887051 0.0265816
v -0.618833 -2.80175 0.221518
vn -0.463027 -0.885891 0.0271615
v -0.616787 -2.80466 0.16335
vn -0.46147 -0.886715 0.0270699
v -0.610643 -2.80752 0.173998
vn -0.461592 -0.886715 0.0249641
v -0.612288 -2.80685 0.167849
vn -0.460494 -0.887234 0.0267953
v -0.612689 -2.80529 0.210875
vn -0.460891 -0.887051 0.026429
v -0.614334 -2.80424 0.217019
vn -0.463271 -0.885739 0.0285043
v -0.708774 -2.69689 0.308869
vn -0.681967 -0.536821 0.496689
v -0.711463 -2.6843 0.317795
vn -0.674459 -0.499496 0.543657
v -0.736857 -2.67146 0.295366
vn -0.708548 -0.512528 0.48497
v -0.736521 -2.67701 0.288579
vn -0.743339 -0.534257 0.402417
v -0.679839 -2.71 0.33072
vn -0.617389 -0.502945 0.604816
v -0.737655 -2.66879 0.296703
vn -0.73925 -0.465804 0.486312
v -0.735971 -2.67919 0.286638
vn -0.710257 -0.539903 0.451643
v -0.677127 -2.7236 0.320595
vn -0.630573 -0.566301 0.530717
v -0.680311 -2.70718 0.332299
vn -0.606952 -0.4644 0.644887
v -0.737655 -2.66629 0.298963
vn -0.705222 -0.476211 0.525224
v -0.706877 -2.70758 0.299007
vn -0.682974 -0.551225 0.479202
v -0.649236 -2.73281 0.34117
vn -0.594897 -0.534135 0.600635
v -0.64993 -2.7282 0.344036
vn -0.591937 -0.487259 0.641957
v -0.712261 -2.68135 0.319445
vn -0.672781 -0.446333 0.590014
v -0.737512 -2.66189 0.303149
vn -0.702963 -0.465407 0.537767
v -0.731511 -2.69001 0.282172
vn -0.702567 -0.505783 0.500504
v -0.674932 -2.73558 0.309474
vn -0.625324 -0.599841 0.49913
v -0.646668 -2.74655 0.330027
vn -0.593371 -0.603809 0.532243
v -0.732033 -2.66242 0.309094
vn -0.683462 -0.390149 0.616932
v -0.729025 -2.69387 0.281506
vn -0.704489 -0.54622 0.453078
v -0.706635 -2.7166 0.289118
vn -0.68157 -0.567949 0.461379
v -0.644397 -2.75849 0.317828
vn -0.586688 -0.650746 0.481948
v -0.63932 -2.73668 0.347517
vn -0.570605 -0.529221 0.627918
v -0.632874 -2.74443 0.346181
vn -0.565172 -0.566881 0.599322
v -0.673942 -2.74573 0.2981
vn -0.618183 -0.63683 0.460707
v -0.643011 -2.76842 0.305145
vn -0.572131 -0.699759 0.427717
v -0.62513 -2.77164 0.322542
vn -0.573595 -0.677664 0.460128
v -0.628677 -2.75245 0.341984
vn -0.581011 -0.59621 0.554003
v -0.725368 -2.69925 0.280527
vn -0.708579 -0.557482 0.432539
v -0.698786 -2.73141 0.280527
vn -0.661336 -0.643788 0.384838
v -0.623221 -2.78124 0.309149
vn -0.555803 -0.733726 0.390728
v -0.627027 -2.75974 0.335841
vn -0.584368 -0.622578 0.520432
v -0.707124 -2.72258 0.280527
vn -0.68685 -0.57738 0.44142
v -0.673535 -2.75404 0.285939
vn -0.620075 -0.689352 0.374493
v -0.642026 -2.77649 0.291665
vn -0.554765 -0.7575 0.344096
v -0.621209 -2.78921 0.295064
vn -0.535752 -0.786309 0.307688
v -0.673359 -2.75663 0.280527
vn -0.621998 -0.714225 0.320872
v -0.641218 -2.78134 0.280527
vn -0.52324 -0.794122 0.309091
v -0.620884 -2.79012 0.29282
vn -0.534623 -0.807428 0.249428
v -0.633177 -2.7858 0.280527
vn -0.5038 -0.781182 0.368603
v -0.622529 -2.79093 0.286671
vn -0.534165 -0.807459 0.250252
v -0.627027 -2.78935 0.282172
vn -0.533891 -0.807367 0.251198
v -0.600858 -2.80919 0.238084
vn -0.168737 -0.981384 0.0916776
v -0.604967 -2.80849 0.238001
vn -0.327311 -0.942137 0.0721763
v -0.601133 -2.81139 0.208917
vn -0.320658 -0.945738 0.0522477
v -0.603993 -2.80586 0.262867
vn -0.166723 -0.97351 0.156438
v -0.596987 -2.81214 0.208565
vn -0.171026 -0.98236 0.0754112
v -0.608097 -2.80518 0.26274
vn -0.333872 -0.933103 0.133366
v -0.596954 -2.81454 0.177254
vn -0.322092 -0.94525 0.0518509
v -0.606078 -2.80144 0.281534
vn -0.167699 -0.949248 0.26603
v -0.592674 -2.81543 0.175725
vn -0.167699 -0.982971 0.0748314
v -0.610148 -2.80077 0.28138
vn -0.345805 -0.905179 0.247078
v -0.592609 -2.81783 0.144292
vn -0.18009 -0.981842 0.0591754
v -0.607591 -2.79574 0.296807
vn -0.170568 -0.911924 0.37315
v -0.587301 -2.81805 0.140629
vn 0.0101932 -0.99704 0.0760521
v -0.611611 -2.79506 0.296631
vn -0.359813 -0.867336 0.343852
v -0.608976 -2.78857 0.311415
vn -0.171087 -0.864406 0.472762
v -0.612958 -2.78788 0.311228
vn -0.370098 -0.82107 0.434523
v -0.610577 -2.77938 0.325264
vn -0.129368 -0.799036 0.587146
v -0.614559 -2.77885 0.325127
vn -0.356548 -0.765862 0.535081
v -0.612733 -2.76765 0.338255
vn -0.00531022 -0.709037 0.70513
v -0.616792 -2.76761 0.338321
vn -0.307871 -0.705283 0.638539
v -0.615016 -2.75338 0.350256
vn 0.133183 -0.593554 0.793664
v -0.619151 -2.75417 0.350383
vn -0.237678 -0.625751 0.742912
v -0.621137 -2.73855 0.36091
vn -0.196692 -0.538224 0.819514
v -0.617006 -2.73659 0.361124
vn 0.229804 -0.478622 0.847377
v -0.62293 -2.72185 0.370667
vn 0.0471511 -0.447371 0.893094
v -0.618382 -2.71201 0.371101
vn 0.548143 -0.288034 0.78518
v -0.740514 -2.65931 0.301455
vn -0.754418 -0.411359 0.511429
v -0.682352 -2.695 0.339113
vn -0.605579 -0.440046 0.662984
v -0.651525 -2.71751 0.35068
vn -0.574328 -0.466659 0.672567
v -0.714076 -2.66958 0.324885
vn -0.658437 -0.383374 0.647633
v -0.653664 -2.70141 0.359375
vn -0.572436 -0.444227 0.689138
v -0.684772 -2.67929 0.346654
vn -0.612873 -0.411389 0.674612
v -0.743006 -2.6445 0.307912
vn -0.737541 -0.348582 0.578326
v -0.716645 -2.65381 0.331072
vn -0.667043 -0.361614 0.651326
v -0.735603 -2.6609 0.306625
vn -0.664266 -0.351695 0.659566
v -0.74492 -2.62836 0.314556
vn -0.748344 -0.330668 0.574999
v -0.765479 -2.62298 0.288117
vn -0.820215 -0.316111 0.47673
v -0.763384 -2.63864 0.280775
vn -0.821284 -0.370922 0.433424
v -0.765243 -2.60635 0.299035
vn -0.823542 -0.298776 0.482162
v -0.756624 -2.65234 0.280599
vn -0.799066 -0.450575 0.398022
v -0.781979 -2.62501 0.253225
vn -0.898404 -0.326426 0.293771
v -0.781192 -2.60262 0.270721
vn -0.891537 -0.245247 0.380718
v -0.759748 -2.65339 0.271793
vn -0.815027 -0.428144 0.390332
v -0.779823 -2.58494 0.283398
vn -0.888668 -0.211798 0.406629
v -0.736417 -2.67876 0.286445
vn -0.761437 -0.481491 0.433943
v -0.737655 -2.67068 0.294767
vn -0.773492 -0.484573 0.40849
v -0.793887 -2.58088 0.246565
vn -0.952055 -0.177984 0.248756
v -0.761117 -2.6608 0.261998
vn -0.825404 -0.425733 0.370678
v -0.78986 -2.58101 0.260964
vn -0.933348 -0.18601 0.306986
v -0.756085 -2.66297 0.269379
vn -0.779931 -0.44496 0.440077
v -0.737655 -2.6721 0.29282
vn -0.773431 -0.509232 0.377392
v -0.797698 -2.58551 0.226407
vn -0.959746 -0.190558 0.206183
v -0.765814 -2.66165 0.247247
vn -0.850063 -0.472488 0.232612
v -0.790867 -2.5613 0.266546
vn -0.940794 -0.140141 0.308634
v -0.735785 -2.68701 0.279207
vn -0.733482 -0.49968 0.460707
v -0.803699 -2.54631 0.225659
vn -0.966124 -0.141362 0.215827
v -0.788024 -2.62393 0.227293
vn -0.926786 -0.321726 0.193762
v -0.75856 -2.66912 0.257873
vn -0.813807 -0.491256 0.310373
v -0.738094 -2.69105 0.27055
vn -0.745537 -0.52443 0.411206
v -0.807466 -2.55666 0.200849
vn -0.965819 -0.159307 0.204382
v -0.798715 -2.54517 0.247593
vn -0.959746 -0.136845 0.245186
v -0.800916 -2.593 0.201745
vn -0.958922 -0.22251 0.175756
v -0.771007 -2.66079 0.228459
vn -0.857082 -0.479354 0.188696
v -0.742011 -2.69643 0.249601
vn -0.775262 -0.600726 0.195074
v -0.790917 -2.62878 0.202669
vn -0.924711 -0.352489 0.143529
v -0.745959 -2.69719 0.229905
vn -0.775903 -0.612323 0.151616
v -0.738557 -2.69631 0.262251
vn -0.767418 -0.566881 0.299478
v -0.811663 -2.56815 0.173261
vn -0.953978 -0.214301 0.209632
v -0.803171 -2.60141 0.173833
vn -0.944823 -0.286233 0.159276
v -0.774015 -2.66345 0.203643
vn -0.854183 -0.506241 0.118595
v -0.73601 -2.69672 0.266189
vn -0.714408 -0.572008 0.402966
v -0.707228 -2.72384 0.278718
vn -0.702261 -0.61034 0.366405
v -0.791819 -2.63432 0.174394
vn -0.910733 -0.401013 0.0985138
v -0.749029 -2.69839 0.204688
vn -0.770135 -0.631306 0.0911893
v -0.816063 -2.58023 0.144292
vn -0.936216 -0.286813 0.202979
v -0.804942 -2.61029 0.144292
vn -0.926206 -0.352031 0.134678
v -0.774741 -2.66652 0.174938
vn -0.842189 -0.535234 0.0649739
v -0.791725 -2.64019 0.144292
vn -0.890896 -0.4485 0.0713523
v -0.749821 -2.69986 0.175483
vn -0.761071 -0.647328 0.0408338
v -0.774317 -2.66979 0.144292
vn -0.827448 -0.559954 0.0413831
v -0.712201 -2.7342 0.231627
vn -0.698477 -0.705863 0.117527
v -0.749474 -2.70146 0.144292
vn -0.750725 -0.660146 0.0237739
v -0.640965 -2.78286 0.277057
vn -0.536241 -0.804285 0.255928
v -0.67309 -2.76049 0.272459
vn -0.57094 -0.752525 0.328135
v -0.674976 -2.76682 0.233409
vn -0.60268 -0.795709 0.0598773
v -0.713944 -2.73759 0.144292
vn -0.677328 -0.735588 0.0105899
v -0.673233 -2.7716 0.144292
vn -0.584429 -0.811304 0.0127262
v -0.620884 -2.80026 0.235053
vn -0.436293 -0.898892 0.0397656
v -0.632841 -2.79689 0.144292
vn -0.493362 -0.869533 0.0219428
v -0.616385 -2.80196 0.239552
vn -0.480544 -0.86877 0.119388
f 1//1 2//2 3//3
f 2//2 1//1 4//4
f 2//2 5//5 3//3
f 6//6 2//2 4//4
f 2//2 7//7 5//5
f 6//6 4//4 8//8
f 9//9 2//2 6//6
f 2//2 10//10 7//7
f 6//6 8//8 11//11
f 2//2 9//9 12//12
f 13//13 9//9 6//6
f 2//2 12//12 10//10
f 11//11 8//8 14//14
f 15//15 6//6 11//11
f 9//9 16//16 12//12
f 17//17 9//9 13//13
f 11//11 14//14 18//18
f 15//15 11//11 19//19
f 20//20 6//6 15//15
f 9//9 21//21 16//16
f 9//9 17//17 22//22
f 19//19 11//11 18//18
f 15//15 19//19 23//23
f 20//20 15//15 24//24
f 9//9 22//22 21//21
f 25//25 15//15 23//23
f 24//24 15//15 26//26
f 22//22 27//27 21//21
f 28//28 15//15 25//25
f 26//26 15//15 29//29
f 30//30 15//15 28//28
f 29//29 15//15 30//30
f 31//31 32//32 33//33
f 32//32 31//31 34//34
f 33//33 32//32 35//35
f 31//31 33//33 36//36
f 32//32 34//34 37//37
f 38//38 33//33 35//35
f 32//32 39//39 35//35
f 36//36 33//33 38//38
f 32//32 37//37 40//40
f 34//34 41//41 37//37
f 38//38 35//35 42//42
f 39//39 32//32 40//40
f 35//35 39//39 43//43
f 36//36 38//38 44//44
f 41//41 45//45 37//37
f 42//42 35//35 46//46
f 47//47 38//38 42//42
f 39//39 40//40 48//48
f 43//43 39//39 49//49
f 35//35 43//43 46//46
f 44//44 38//38 50//50
f 41//41 51//51 45//45
f 42//42 46//46 52//52
f 47//47 42//42 53//53
f 50//50 38//38 47//47
f 39//39 48//48 54//54
f 39//39 55//55 49//49
f 42//42 52//52 56//56
f 53//53 42//42 56//56
f 50//50 47//47 57//57
f 39//39 54//54 55//55
f 53//53 56//56 58//58
f 53//53 58//58 59//59
f 59//59 58//58 60//60
f 57//57 61//61 62//62
f 63//63 64//64 65//65
f 63//63 65//65 66//66
f 67//67 64//64 63//63
f 64//64 68//68 65//65
f 63//63 66//66 69//69
f 70//70 67//67 63//63
f 64//64 67//67 71//71
f 64//64 72//72 68//68
f 73//73 63//63 69//69
f 70//70 63//63 73//73
f 74//74 67//67 70//70
f 71//71 67//67 75//75
f 71//71 76//76 64//64
f 64//64 77//77 72//72
f 73//73 69//69 78//78
f 79//79 70//70 73//73
f 67//67 74//74 75//75
f 80//80 74//74 70//70
f 64//64 76//76 81//81
f 64//64 81//81 77//77
f 73//73 78//78 82//82
f 79//79 73//73 83//83
f 70//70 79//79 84//84
f 75//75 74//74 85//85
f 80//80 70//70 84//84
f 80//80 86//86 74//74
f 83//83 73//73 82//82
f 87//87 79//79 83//83
f 84//84 79//79 88//88
f 86//86 85//85 74//74
f 80//80 84//84 89//89
f 86//86 80//80 90//90
f 83//83 82//82 91//91
f 87//87 83//83 92//92
f 79//79 87//87 88//88
f 84//84 88//88 93//93
f 89//89 84//84 93//93
f 94//94 80//80 89//89
f 90//90 80//80 94//94
f 95//95 83//83 91//91
f 96//96 87//87 92//92
f 92//92 83//83 95//95
f 88//88 87//87 97//97
f 93//93 88//88 98//98
f 96//96 92//92 99//99
f 87//87 96//96 97//97
f 88//88 97//97 98//98
f 96//96 99//99 100//100
f 97//97 96//96 100//100
f 98//98 97//97 101//101
f 97//97 100//100 102//102
f 101//101 97//97 103//103
f 97//97 102//102 104//104
f 97//97 104//104 103//103
f 105//105 106//106 107//107
f 108//108 106//106 105//105
f 105//105 107//107 109//109
f 108//108 110//110 106//106
f 107//107 111//111 109//109
f 112//112 110//110 108//108
f 109//109 111//111 113//113
f 112//112 114//114 110//110
f 111//111 115//115 113//113
f 116//116 114//114 112//112
f 113//113 115//115 117//117
f 116//116 118//118 114//114
f 119//119 118//118 116//116
f 119//119 120//120 118//118
f 121//121 120//120 119//119
f 121//121 122//122 120//120
f 123//123 122//122 121//121
f 124//124 122//122 123//123
f 124//124 123//123 125//125
f 126//126 124//124 125//125
f 127//127 126//126 125//125
f 127//127 125//125 128//128
f 129//129 127//127 128//128
f 129//129 128//128 130//130
f 72//72 77//77 131//131
f 76//76 71//71 132//132
f 132//132 71//71 133//133
f 134//134 76//76 132//132
f 132//132 133//133 135//135
f 71//71 75//75 133//133
f 76//76 134//134 81//81
f 134//134 132//132 136//136
f 135//135 133//133 129//129
f 136//136 132//132 135//135
f 133//133 75//75 85//85
f 134//134 137//137 81//81
f 138//138 134//134 136//136
f 133//133 127//127 129//129
f 133//133 85//85 127//127
f 134//134 138//138 137//137
f 137//137 139//139 81//81
f 85//85 86//86 127//127
f 138//138 140//140 137//137
f 139//139 137//137 131//131
f 86//86 126//126 127//127
f 137//137 140//140 141//141
f 131//131 137//137 142//142
f 126//126 86//86 90//90
f 137//137 141//141 142//142
f 140//140 143//143 141//141
f 131//131 142//142 144//144
f 126//126 90//90 94//94
f 142//142 141//141 145//145
f 141//141 143//143 146//146
f 147//147 144//144 142//142
f 68//68 131//131 144//144
f 126//126 94//94 124//124
f 145//145 141//141 146//146
f 147//147 142//142 145//145
f 143//143 148//148 146//146
f 149//149 144//144 147//147
f 150//150 68//68 144//144
f 124//124 94//94 122//122
f 145//145 146//146 151//151
f 152//152 147//147 145//145
f 146//146 148//148 153//153
f 149//149 147//147 154//154
f 149//149 66//66 144//144
f 155//155 150//150 144//144
f 94//94 89//89 122//122
f 145//145 151//151 156//156
f 146//146 153//153 151//151
f 157//157 152//152 145//145
f 154//154 147//147 152//152
f 148//148 158//158 153//153
f 159//159 149//149 154//154
f 66//66 155//155 144//144
f 122//122 89//89 120//120
f 156//156 151//151 160//160
f 145//145 156//156 161//161
f 153//153 158//158 151//151
f 157//157 145//145 161//161
f 162//162 152//152 157//157
f 163//163 154//154 152//152
f 163//163 159//159 154//154
f 78//78 149//149 159//159
f 89//89 93//93 120//120
f 156//156 160//160 164//164
f 151//151 165//165 160//160
f 161//161 156//156 166//166
f 151//151 158//158 165//165
f 157//157 161//161 167//167
f 168//168 162//162 157//157
f 163//163 152//152 162//162
f 82//82 159//159 163//163
f 120//120 93//93 118//118
f 166//166 156//156 164//164
f 169//169 161//161 166//166
f 167//167 161//161 169//169
f 170//170 157//157 167//167
f 170//170 168//168 157//157
f 168//168 171//171 162//162
f 171//171 163//163 162//162
f 91//91 82//82 163//163
f 93//93 98//98 118//118
f 166//166 164//164 172//172
f 169//169 166//166 173//173
f 174//174 167//167 169//169
f 170//170 167//167 174//174
f 10//10 168//168 170//170
f 16//16 171//171 168//168
f 175//175 163//163 171//171
f 176//176 91//91 163//163
f 118//118 98//98 114//114
f 173//173 166//166 172//172
f 177//177 169//169 173//173
f 174//174 169//169 177//177
f 178//178 170//170 174//174
f 10//10 12//12 168//168
f 7//7 10//10 170//170
f 12//12 16//16 168//168
f 27//27 163//163 175//175
f 176//176 163//163 22//22
f 176//176 95//95 91//91
f 98//98 101//101 114//114
f 173//173 172//172 179//179
f 177//177 173//173 180//180
f 181//181 174//174 177//177
f 178//178 174//174 181//181
f 37//37 170//170 178//178
f 5//5 7//7 170//170
f 17//17 176//176 22//22
f 101//101 103//103 114//114
f 180//180 173//173 179//179
f 182//182 177//177 180//180
f 181//181 177//177 182//182
f 183//183 178//178 181//181
f 37//37 178//178 183//183
f 37//37 45//45 170//170
f 3//3 5//5 170//170
f 92//92 176//176 17//17
f 103//103 104//104 114//114
f 184//184 181//181 182//182
f 183//183 181//181 184//184
f 40//40 37//37 183//183
f 51//51 170//170 45//45
f 185//185 3//3 170//170
f 92//92 17//17 13//13
f 104//104 102//102 114//114
f 186//186 183//183 184//184
f 40//40 183//183 186//186
f 41//41 170//170 51//51
f 185//185 170//170 34//34
f 185//185 1//1 3//3
f 92//92 13//13 99//99
f 114//114 102//102 187//187
f 40//40 186//186 48//48
f 34//34 170//170 41//41
f 31//31 185//185 34//34
f 1//1 185//185 4//4
f 100//100 187//187 102//102
f 114//114 187//187 26//26
f 54//54 48//48 186//186
f 4//4 185//185 31//31
f 99//99 187//187 100//100
f 187//187 24//24 26//26
f 114//114 26//26 29//29
f 55//55 54//54 186//186
f 4//4 31//31 36//36
f 99//99 188//188 187//187
f 187//187 188//188 24//24
f 114//114 29//29 30//30
f 49//49 55//55 186//186
f 4//4 36//36 189//189
f 114//114 30//30 110//110
f 43//43 49//49 186//186
f 189//189 36//36 44//44
f 30//30 28//28 110//110
f 190//190 43//43 186//186
f 189//189 44//44 14//14
f 110//110 28//28 106//106
f 43//43 190//190 46//46
f 14//14 44//44 18//18
f 46//46 190//190 191//191
f 18//18 44//44 50//50
f 46//46 191//191 52//52
f 192//192 18//18 50//50
f 52//52 191//191 193//193
f 192//192 50//50 57//57
f 52//52 193//193 56//56
f 192//192 57//57 62//62
f 56//56 193//193 115//115
f 19//19 192//192 62//62
f 58//58 56//56 115//115
f 106//106 19//19 62//62
f 60//60 58//58 115//115
f 194//194 19//19 106//106
f 106//106 62//62 61//61
f 59//59 60//60 115//115
f 23//23 194//194 106//106
f 106//106 61//61 47//47
f 53//53 59//59 115//115
f 25//25 23//23 106//106
f 106//106 47//47 107//107
f 111//111 53//53 115//115
f 107//107 47//47 53//53
f 107//107 53//53 111//111
