# Created by Open3D 
# object name: left_head_light
# number of vertices: 127
# number of triangles: 180
v -0.448508 1.78043 0.102806
vn -0.386273 0.802118 0.455367
v -0.440468 1.79315 0.0855306
vn -0.365337 0.83401 0.413404
v -0.45221 1.77999 0.100441
vn -0.380657 0.799768 0.464125
v -0.467726 1.76381 0.113295
vn -0.431288 0.777459 0.457747
v -0.444109 1.79261 0.0833691
vn -0.36195 0.835871 0.412641
v -0.470492 1.76445 0.10956
vn -0.388775 0.77047 0.505173
v -0.436342 1.81021 0.0525416
vn -0.336711 0.863369 0.375713
v -0.431942 1.81245 0.0511611
vn -0.328471 0.871883 0.36317
v -0.519167 1.73946 0.115968
vn -0.376934 0.804468 0.458998
v -0.520575 1.7412 0.111766
vn -0.376812 0.795587 0.474349
v -0.429847 1.82632 0.0179796
vn -0.335704 0.880306 0.335093
v -0.583203 1.7071 0.116556
vn -0.449477 0.759239 0.470595
v -0.424397 1.83129 0.0102466
vn -0.35078 0.880673 0.318339
v -0.583984 1.7092 0.112415
vn -0.448775 0.760918 0.468581
v -0.423979 1.84169 -0.0184524
vn -0.21659 0.86053 0.461013
v -0.635943 1.6711 0.116573
vn -0.528275 0.718528 0.452315
v -0.417335 1.8499 -0.0339404
vn -0.356059 0.880123 0.313883
v -0.638055 1.67221 0.112387
vn -0.536424 0.709098 0.457625
v -0.422736 1.84495 -0.0261854
vn -0.268654 0.902219 0.337352
v -0.679663 1.6393 0.111221
vn -0.591632 0.717612 0.367351
v -0.683039 1.63485 0.115781
vn -0.578692 0.754784 0.308786
v -0.687467 1.63154 0.11561
vn -0.634693 0.747826 0.194617
v -0.705661 1.61748 0.108466
vn -0.648366 0.647053 0.401135
v -0.515642 1.7609 0.0838806
vn -0.374706 0.804285 0.461165
v -0.581823 1.72801 0.0834901
vn -0.442915 0.773888 0.452651
v -0.579656 1.74705 0.0515076
vn -0.447096 0.805383 0.38908
v -0.510961 1.77929 0.0524316
vn -0.377148 0.842128 0.385388
v -0.636521 1.71215 0.0489446
vn -0.535722 0.755058 0.377972
v -0.637318 1.69281 0.0813066
vn -0.529496 0.724448 0.441298
v -0.577472 1.76244 0.0174791
vn -0.450728 0.833216 0.3202
v -0.635608 1.72691 0.0160711
vn -0.543107 0.781945 0.305887
v -0.506798 1.7951 0.0179631
vn -0.377606 0.865688 0.328593
v -0.679938 1.67978 0.0458866
vn -0.600574 0.712821 0.362163
v -0.679849 1.66082 0.0783201
vn -0.586322 0.688192 0.427259
v -0.634634 1.73937 -0.0170609
vn -0.427869 0.631794 0.64629
v -0.575284 1.77602 -0.0175614
vn -0.351695 0.669027 0.654714
v -0.679849 1.69358 0.0144101
vn -0.614185 0.733909 0.289956
v -0.502893 1.80961 -0.0180179
vn -0.296396 0.694327 0.655751
v -0.708301 1.6551 0.0434721
vn -0.670339 0.662954 0.333354
v -0.707135 1.63757 0.0755261
vn -0.651326 0.645558 0.398694
v -0.679668 1.70481 -0.0165934
vn -0.490829 0.593493 0.637806
v -0.708851 1.66753 0.0131836
vn -0.690115 0.675436 0.259774
v -0.727507 1.63478 0.0413931
vn -0.729637 0.612842 0.303354
v -0.728552 1.64563 0.0122321
vn -0.750175 0.620258 0.229072
v -0.725351 1.61924 0.0726221
vn -0.708548 0.601123 0.369549
v -0.709093 1.67741 -0.0162194
vn -0.557237 0.54622 0.625355
v -0.729041 1.65415 -0.0159004
vn -0.612445 0.503525 0.609333
v -0.722645 1.60137 0.104885
vn -0.699271 0.600757 0.387371
v -0.744882 1.62476 0.0113906
vn -0.795282 0.570605 0.204627
v -0.743446 1.61545 0.0393636
vn -0.778954 0.562822 0.276406
v -0.745641 1.632 -0.0155979
vn -0.650685 0.468703 0.597369
v -0.740657 1.60204 0.0693111
vn -0.760643 0.552568 0.340678
v -0.737204 1.58657 0.100243
vn -0.75164 0.553453 0.358745
v -0.759412 1.61111 -0.0153174
vn -0.68099 0.433576 0.590075
v -0.758444 1.60451 0.0106151
vn -0.835871 0.515 0.189917
v -0.75685 1.5962 0.0371911
vn -0.828516 0.499619 0.252785
v -0.753984 1.58447 0.0650486
vn -0.817713 0.485031 0.309885
v -0.750486 1.57104 0.0935496
vn -0.812128 0.482894 0.327403
v -0.770897 1.59166 -0.0150534
vn -0.722373 0.388714 0.571856
v -0.769879 1.58452 0.00986157
vn -0.863063 0.467452 0.191229
v -0.76846 1.57608 0.0346776
vn -0.862453 0.445235 0.240638
v -0.766249 1.56503 0.0593011
vn -0.855495 0.431074 0.286813
v -0.763642 1.55267 0.0838311
vn -0.848994 0.430067 0.306894
v -0.781248 1.57292 -0.0147949
vn -0.871883 0.443312 0.207984
v -0.780241 1.56466 0.00911907
vn -0.873867 0.442824 0.200507
v -0.779168 1.55552 0.0319936
vn -0.873104 0.422346 0.243446
v -0.772728 1.53956 0.0763236
vn -0.860927 0.415326 0.293741
v -0.777986 1.54465 0.0528111
vn -0.868831 0.413678 0.272011
v -0.775621 1.53617 0.0725066
vn -0.862239 0.413709 0.292154
v -0.776699 1.53716 0.0679966
vn -0.862819 0.413953 0.290078
v -0.668371 1.68787 0.0524316
vn -0.532548 0.834162 0.143254
v -0.664208 1.69093 0.0450341
vn -0.505112 0.860073 0.0712302
v -0.669361 1.68787 0.0449681
vn -0.552355 0.830348 0.0732749
v -0.66325 1.69095 0.0510676
vn -0.456465 0.879482 0.134617
v -0.657129 1.69095 0.0615286
vn -0.309091 0.897824 0.313608
v -0.651304 1.69407 0.0556546
vn -0.245949 0.935697 0.252846
v -0.654803 1.6939 0.0531576
vn -0.285501 0.931059 0.227058
v -0.64872 1.6939 0.0590701
vn -0.220832 0.931486 0.289041
v -0.661023 1.69093 0.0567711
vn -0.388806 0.893033 0.226478
v -0.652311 1.69093 0.0653676
vn -0.221412 0.895108 0.386975
v -0.665483 1.68787 0.0593836
vn -0.477248 0.834162 0.276284
v -0.646536 1.69095 0.0675621
vn -0.164434 0.890683 0.423811
v -0.66088 1.68787 0.0653566
vn -0.385907 0.83694 0.388012
v -0.647906 1.68787 0.0728146
vn -0.205908 0.837642 0.505875
v -0.65489 1.68787 0.0699381
vn -0.272561 0.837611 0.473373
v -0.648588 1.68595 0.0754216
vn -0.222816 0.811945 0.539506
v -0.656205 1.68595 0.0722756
vn -0.290262 0.813257 0.504318
v -0.662744 1.68595 0.0672541
vn -0.412946 0.810938 0.414472
v -0.667766 1.68595 0.0607201
vn -0.508652 0.809107 0.29429
v -0.670912 1.68595 0.0531026
vn -0.56975 0.80752 0.152501
v -0.671995 1.68595 0.0449351
vn -0.587695 0.805292 0.0779443
v -0.667766 1.68109 0.0607421
vn 0.871364 0.333079 -0.360179
v -0.672056 1.68438 0.0534106
vn 0.871364 0.333079 -0.360179
v -0.668789 1.68438 0.0613141
vn 0.871364 0.333079 -0.360179
v -0.66358 1.67414 0.0680901
vn -0.736198 0 0.676748
v -0.656799 1.68233 0.0733041
vn -0.609516 0 0.792749
v -0.66358 1.68233 0.0680901
vn -0.707144 0 0.707053
v -0.668789 1.67414 0.0613141
vn -0.865993 0 0.500046
v -0.668789 1.68233 0.0613141
vn -0.865963 0 0.500046
v -0.672056 1.67414 0.0534106
vn -0.924131 0 0.382
v -0.672056 1.68233 0.0534106
vn -0.924131 0 0.382
v -0.747005 1.63422 -0.0168574
vn -0.677908 0.482925 0.554247
v -0.76082 1.61332 -0.0165659
vn -0.704764 0.450301 0.548173
v -0.730361 1.6564 -0.0171709
vn -0.639119 0.515763 0.570513
v -0.772343 1.59385 -0.0162909
vn -0.742546 0.390332 0.544267
v -0.759979 1.61615 -0.0270104
vn -0.840114 0.536607 0.0786157
v -0.746124 1.63725 -0.0275109
vn -0.811487 0.577807 0.0870083
v -0.771485 1.59712 -0.0265649
vn -0.871761 0.481979 0.0875881
v -0.729421 1.65996 -0.0280554
vn -0.786248 0.617817 0.00814844
v -0.710347 1.67969 -0.0175009
vn -0.582507 0.559008 0.590045
v -0.780357 1.57783 -0.0209164
vn -0.890591 0.423719 0.165197
v -0.780175 1.57638 -0.0167529
vn -0.866451 0.417005 0.274422
v -0.729305 1.65859 -0.0306074
vn -0.763695 0.553758 -0.331767
v -0.780593 1.57977 -0.0264934
vn -0.868068 0.456435 0.195227
v -0.709407 1.68378 -0.0286714
vn -0.700827 0.686331 0.194342
v -0.680845 1.70712 -0.0178804
vn -0.509293 0.602863 0.614124
v -0.781539 1.57532 -0.0217249
vn -0.910276 0.37785 0.169042
v -0.679861 1.71163 -0.0292929
vn -0.619343 0.746849 0.242073
v -0.63575 1.74172 -0.0183589
vn -0.441725 0.641682 0.626942
v -0.634552 1.74643 -0.0298759
vn -0.536882 0.799036 0.270638
v -0.576328 1.77838 -0.0188594
vn -0.366497 0.679006 0.636067
v -0.57475 1.78322 -0.0304149
vn -0.441206 0.847682 0.294504
v -0.503882 1.812 -0.0193159
vn -0.302408 0.698172 0.648885
v -0.426377 1.84352 -0.0197449
vn -0.0668966 0.777276 0.625568
v -0.501688 1.81706 -0.0308824
vn -0.372906 0.87402 0.311411
v -0.425348 1.84619 -0.0260864
vn -0.355602 0.880306 0.313913
v -0.424512 1.8484 -0.0313169
vn -0.355571 0.880215 0.314249
f 1//1 2//2 3//3
f 4//4 1//1 3//3
f 3//3 2//2 5//5
f 4//4 3//3 6//6
f 2//2 7//7 5//5
f 2//2 8//8 7//7
f 9//9 6//6 10//10
f 7//7 8//8 11//11
f 12//12 9//9 10//10
f 8//8 13//13 11//11
f 12//12 10//10 14//14
f 11//11 13//13 15//15
f 16//16 12//12 14//14
f 13//13 17//17 15//15
f 16//16 14//14 18//18
f 15//15 17//17 19//19
f 16//16 18//18 20//20
f 16//16 20//20 21//21
f 21//21 20//20 22//22
f 22//22 20//20 23//23
f 10//10 6//6 24//24
f 10//10 24//24 25//25
f 6//6 3//3 24//24
f 24//24 26//26 25//25
f 14//14 10//10 25//25
f 3//3 5//5 24//24
f 24//24 27//27 26//26
f 25//25 26//26 28//28
f 14//14 25//25 29//29
f 24//24 5//5 27//27
f 27//27 30//30 26//26
f 26//26 31//31 28//28
f 25//25 28//28 29//29
f 14//14 29//29 18//18
f 5//5 7//7 27//27
f 26//26 30//30 31//31
f 27//27 32//32 30//30
f 28//28 31//31 33//33
f 29//29 28//28 34//34
f 18//18 29//29 20//20
f 7//7 32//32 27//27
f 30//30 35//35 31//31
f 32//32 36//36 30//30
f 33//33 31//31 37//37
f 34//34 28//28 33//33
f 20//20 29//29 34//34
f 7//7 11//11 32//32
f 31//31 35//35 37//37
f 30//30 36//36 35//35
f 32//32 38//38 36//36
f 33//33 37//37 39//39
f 34//34 33//33 40//40
f 20//20 34//34 23//23
f 11//11 38//38 32//32
f 37//37 35//35 41//41
f 40//40 33//33 39//39
f 39//39 37//37 42//42
f 23//23 34//34 40//40
f 11//11 15//15 38//38
f 37//37 41//41 42//42
f 43//43 40//40 39//39
f 44//44 39//39 42//42
f 23//23 40//40 45//45
f 42//42 41//41 46//46
f 43//43 39//39 44//44
f 45//45 40//40 43//43
f 44//44 42//42 47//47
f 48//48 23//23 45//45
f 47//47 42//42 46//46
f 49//49 43//43 44//44
f 50//50 45//45 43//43
f 51//51 44//44 47//47
f 48//48 45//45 52//52
f 49//49 44//44 51//51
f 50//50 43//43 49//49
f 52//52 45//45 50//50
f 53//53 48//48 52//52
f 54//54 49//49 51//51
f 55//55 50//50 49//49
f 56//56 52//52 50//50
f 57//57 53//53 52//52
f 55//55 49//49 54//54
f 56//56 50//50 55//55
f 57//57 52//52 56//56
f 58//58 53//53 57//57
f 59//59 55//55 54//54
f 60//60 56//56 55//55
f 61//61 57//57 56//56
f 62//62 58//58 57//57
f 60//60 55//55 59//59
f 61//61 56//56 60//60
f 62//62 57//57 61//61
f 63//63 58//58 62//62
f 64//64 60//60 59//59
f 65//65 61//61 60//60
f 66//66 62//62 61//61
f 67//67 63//63 62//62
f 65//65 60//60 64//64
f 66//66 61//61 65//65
f 68//68 62//62 66//66
f 69//69 67//67 62//62
f 70//70 62//62 68//68
f 69//69 62//62 70//70
f 71//71 72//72 73//73
f 71//71 74//74 72//72
f 75//75 76//76 77//77
f 75//75 78//78 76//76
f 79//79 77//77 74//74
f 79//79 74//74 71//71
f 75//75 77//77 79//79
f 80//80 78//78 75//75
f 81//81 79//79 71//71
f 82//82 78//78 80//80
f 83//83 75//75 79//79
f 80//80 75//75 83//83
f 83//83 79//79 81//81
f 84//84 82//82 80//80
f 85//85 80//80 83//83
f 84//84 80//80 85//85
f 86//86 84//84 87//87
f 84//84 85//85 87//87
f 87//87 85//85 88//88
f 85//85 83//83 88//88
f 88//88 83//83 81//81
f 88//88 81//81 89//89
f 89//89 81//81 71//71
f 89//89 71//71 90//90
f 90//90 71//71 73//73
f 90//90 73//73 91//91
f 92//92 93//93 94//94
f 95//95 96//96 97//97
f 95//95 97//97 98//98
f 98//98 97//97 99//99
f 98//98 99//99 100//100
f 100//100 99//99 101//101
f 102//102 51//51 47//47
f 103//103 54//54 51//51
f 103//103 51//51 102//102
f 102//102 47//47 104//104
f 105//105 54//54 103//103
f 103//103 102//102 106//106
f 102//102 104//104 107//107
f 104//104 47//47 46//46
f 105//105 103//103 108//108
f 105//105 59//59 54//54
f 108//108 103//103 106//106
f 106//106 102//102 107//107
f 107//107 104//104 109//109
f 104//104 46//46 110//110
f 111//111 105//105 108//108
f 112//112 59//59 105//105
f 107//107 109//109 113//113
f 104//104 110//110 109//109
f 110//110 46//46 41//41
f 111//111 108//108 114//114
f 112//112 105//105 111//111
f 64//64 59//59 112//112
f 109//109 110//110 115//115
f 110//110 41//41 116//116
f 64//64 112//112 117//117
f 110//110 116//116 115//115
f 116//116 41//41 35//35
f 116//116 118//118 115//115
f 116//116 35//35 119//119
f 116//116 119//119 118//118
f 119//119 35//35 36//36
f 119//119 120//120 118//118
f 119//119 36//36 121//121
f 119//119 121//121 120//120
f 121//121 36//36 38//38
f 121//121 122//122 120//120
f 121//121 38//38 123//123
f 121//121 123//123 122//122
f 123//123 38//38 124//124
f 123//123 125//125 122//122
f 123//123 124//124 125//125
f 38//38 15//15 124//124
f 124//124 126//126 125//125
f 15//15 19//19 124//124
f 126//126 127//127 125//125
