# Created by Open3D 
# object name: left_quarter_window
# number of vertices: 124
# number of triangles: 193
v -0.650226 -1.51961 0.632731
vn -0.991974 0.110019 0.0618
v -0.639139 -1.40916 0.671088
vn -0.979949 0.150212 -0.13068
v -0.63729 -1.40429 0.668288
vn -0.939085 0.192999 -0.28431
v -0.651668 -1.52081 0.636652
vn -0.990051 0.0977813 0.101108
v -0.638237 -1.41392 0.672507
vn -0.895505 -0.0327464 0.44377
v -0.650128 -1.52553 0.642037
vn -0.947417 0.0211188 0.319224
v -0.636427 -1.41646 0.675961
vn -0.895535 -0.0257881 0.444197
v -0.644749 -1.52758 0.645793
vn -0.900174 -0.0241707 0.434797
v -0.630498 -1.4138 0.681208
vn -0.965209 0.0406201 0.258248
v -0.634837 -1.41519 0.679266
vn -0.538347 -0.188177 0.821406
v -0.648813 -1.52661 0.6446
vn -0.656941 -0.164983 0.735618
v -0.650353 -1.52189 0.639215
vn -0.952239 0.0174871 0.304758
v -0.667238 -1.61893 0.597041
vn -0.98764 0.119572 0.10123
v -0.666182 -1.62783 0.602107
vn -0.9476 0.0253609 0.318369
v -0.665951 -1.62018 0.599538
vn -0.950194 0.0260933 0.310556
v -0.664895 -1.6291 0.604593
vn -0.663015 -0.194433 0.722892
v -0.665775 -1.61757 0.593186
vn -0.988922 0.131718 0.0680868
v -0.660858 -1.63025 0.60572
vn -0.901578 -0.0303964 0.431471
v -0.684206 -1.71931 0.553789
vn -0.987182 0.120609 0.104312
v -0.684156 -1.72858 0.556182
vn -0.964843 0.0519425 0.257607
v -0.682897 -1.72998 0.558613
vn -0.66982 -0.219245 0.709403
v -0.682726 -1.71786 0.549967
vn -0.988189 0.142582 0.0557573
v -0.682929 -1.72065 0.556248
vn -0.968902 0.0559404 0.241005
v -0.678882 -1.73126 0.55968
vn -0.902951 -0.0408948 0.427747
v -0.705688 -1.84447 0.493713
vn -0.986877 0.118564 0.109317
v -0.705303 -1.84242 0.498481
vn -0.920164 0.286691 -0.266549
v -0.704066 -1.84393 0.500857
vn -0.675192 -0.247291 0.694906
v -0.704176 -1.84286 0.489967
vn -0.986999 0.156774 0.0347606
v -0.704445 -1.84598 0.496089
vn -0.859188 0.375347 -0.347606
v -0.700073 -1.84533 0.501864
vn -0.907559 -0.0535295 0.416425
v -0.721842 -1.93002 0.442365
vn -0.990997 0.094882 0.0943022
v -0.720654 -1.93175 0.444609
vn -0.976135 0.206702 -0.0664388
v -0.721545 -1.92814 0.449542
vn -0.984069 0.177557 -0.00848415
v -0.720346 -1.92981 0.451825
vn -0.68572 -0.292459 0.666494
v -0.720269 -1.92817 0.438751
vn -0.988067 0.153813 0.00393689
v -0.716386 -1.93136 0.452754
vn -0.917814 -0.0721458 0.390362
v -0.726363 -1.96257 0.417043
vn -0.999084 0.0150456 -0.039552
v -0.724443 -1.96187 0.420975
vn -0.950499 0.242561 0.194159
v -0.727815 -1.96349 0.424968
vn -0.984619 0.174474 0.00851466
v -0.727337 -1.96777 0.425584
vn -0.830409 -0.431867 0.351939
v -0.725533 -1.96315 0.411752
vn -0.676382 0.45201 0.5815
v -0.724114 -1.97193 0.424831
vn -0.930021 0.302072 0.209296
v -0.732111 -1.95203 0.40799
vn -0.965178 -0.00793481 0.261422
v -0.736247 -1.83171 0.39804
vn -0.966338 -0.021485 0.256294
v -0.733046 -1.94285 0.403755
vn -0.995361 -0.026307 0.0924406
v -0.734547 -1.86674 0.401412
vn -0.870418 0.00970489 0.492203
v -0.736928 -1.83192 0.395054
vn -0.984161 -0.0484634 -0.170324
v -0.73139 -1.95736 0.410421
vn -0.965361 -0.00881985 0.26072
v -0.739684 -1.70739 0.394845
vn -0.814814 -0.0265816 0.579089
v -0.731049 -1.93233 0.400213
vn -0.753471 -0.0776391 -0.652821
v -0.741499 -1.71959 0.39105
vn -0.984466 -0.0616474 -0.16419
v -0.733865 -1.86647 0.404398
vn -0.818751 0.0132756 0.573962
v -0.740811 -1.71944 0.394042
vn -0.836695 -0.0233161 0.547136
v -0.734624 -1.83206 0.391374
vn -0.926633 -0.0124821 0.375713
v -0.730219 -1.96622 0.414463
vn -0.651082 0.0525834 0.757134
v -0.738996 -1.70724 0.397837
vn -0.811975 -0.0193487 0.583331
v -0.742478 -1.69656 0.393228
vn -0.806696 -0.0396435 0.589587
v -0.739194 -1.71965 0.387365
vn -0.853175 -0.0656758 -0.517441
v -0.74316 -1.69672 0.390236
vn -0.980407 -0.0691244 0.184423
v -0.726121 -1.96545 0.417109
vn -0.549242 0.0639973 0.833186
v -0.730191 -1.86614 0.406692
vn -0.804041 0.0108646 0.59444
v -0.741119 -1.68748 0.394091
vn -0.734031 -0.0325938 0.678304
v -0.735311 -1.70701 0.400136
vn -0.787103 -0.0110782 0.616688
v -0.740438 -1.68732 0.397083
vn -0.760308 -0.0362865 0.648518
v -0.743479 -1.68441 0.392821
vn -0.919156 -0.0592059 0.389325
v -0.736753 -1.68708 0.399382
vn -0.787133 -0.0946074 0.609455
v -0.744233 -1.68292 0.389757
vn -0.949919 0.3043 0.0707724
v -0.741312 -1.67741 0.396748
vn -0.864009 0.262886 0.429365
v -0.741791 -1.68325 0.394014
vn -0.908841 -0.113346 0.401379
v -0.737841 -1.67149 0.398788
vn -0.964995 0.261055 -0.023835
v -0.741983 -1.68134 0.386006
vn -0.775536 0.606891 -0.173742
v -0.738595 -1.68138 0.403166
vn -0.918729 -0.333842 0.210791
v -0.71901 -1.64502 0.454855
vn -0.77279 -0.356761 0.524827
v -0.739332 -1.67305 0.402919
vn -0.991272 0.129154 -0.0253609
v -0.722607 -1.64261 0.454476
vn -0.765648 -0.368999 0.526841
v -0.737627 -1.67559 0.405707
vn -0.920652 -0.0626545 0.385296
v -0.719939 -1.62892 0.454041
vn -0.844508 0.519883 -0.128391
v -0.698071 -1.59853 0.51618
vn -0.761742 -0.345439 0.548051
v -0.721952 -1.63147 0.456923
vn -0.967376 0.137394 0.212806
v -0.723399 -1.64012 0.452853
vn -0.965056 0.0762352 0.250618
v -0.701662 -1.59611 0.515817
vn -0.758476 -0.353526 0.54741
v -0.738007 -1.67452 0.405801
vn -0.874172 -0.214789 0.435469
v -0.673893 -1.55218 0.577329
vn -0.750267 -0.339152 0.567431
v -0.72116 -1.63395 0.458562
vn -0.956908 0.0472732 0.286477
v -0.702449 -1.59361 0.514217
vn -0.955931 0.0760216 0.283547
v -0.677473 -1.54974 0.576988
vn -0.751762 -0.339854 0.56505
v -0.698978 -1.58456 0.522665
vn -0.935026 0.00402844 0.354534
v -0.699765 -1.58207 0.521042
vn -0.924558 -0.0455031 0.378277
v -0.648675 -1.50692 0.637026
vn -0.545152 -0.375439 0.749535
v -0.673607 -1.53528 0.586624
vn -0.915891 -0.026429 0.400525
v -0.678244 -1.54723 0.575399
vn -0.929868 0.00930815 0.367748
v -0.652569 -1.50504 0.635948
vn -0.62685 -0.323069 0.708975
v -0.674383 -1.53278 0.585018
vn -0.91702 -0.0289315 0.397748
v -0.653648 -1.50308 0.633627
vn -0.913755 -0.0255745 0.405408
v -0.650661 -1.48947 0.641223
vn -0.491989 -0.224525 0.841121
v -0.652988 -1.49764 0.63547
vn -0.913816 -0.0252388 0.405286
v -0.64553 -1.48123 0.645727
vn -0.37083 -0.256783 0.892483
v -0.646366 -1.45457 0.652982
vn -0.378155 -0.180456 0.907956
v -0.642356 -1.45528 0.654511
vn -0.393414 -0.181524 0.901242
v -0.644397 -1.44002 0.656694
vn -0.461501 -0.185797 0.867458
v -0.64009 -1.43247 0.660676
vn -0.47084 -0.186285 0.8623
v -0.71858 -1.65246 0.455229
vn -0.943876 -0.0277108 0.329081
v -0.71445 -1.71137 0.464359
vn -0.947508 -0.0178228 0.319163
v -0.70053 -1.70615 0.504845
vn -0.938261 -0.0130924 0.345622
v -0.720054 -1.76789 0.44451
vn -0.949767 -0.0117496 0.312662
v -0.698346 -1.61435 0.51453
vn -0.934538 -0.0172735 0.355419
v -0.7282 -1.82865 0.417026
vn -0.959899 -0.0153813 0.279855
v -0.683842 -1.66968 0.548278
vn -0.92645 -0.0121769 0.376141
v -0.72177 -1.82362 0.43775
vn -0.951964 -0.00827052 0.30607
v -0.675053 -1.56883 0.573672
vn -0.921079 -0.0180975 0.388867
v -0.694826 -1.78919 0.517181
vn -0.936338 -0.0120853 0.350841
v -0.71291 -1.89016 0.463468
vn -0.952147 -0.00839259 0.305429
v -0.725533 -1.97032 0.410729
vn -0.971557 -0.0343638 0.234169
v -0.646101 -1.52837 0.649847
vn -0.936644 0.224647 -0.268685
v -0.631807 -1.41442 0.685305
vn -0.941374 0.202124 -0.270058
v -0.662266 -1.63123 0.609708
vn -0.927763 0.265236 -0.262398
v -0.680333 -1.73237 0.563623
vn -0.921476 0.290933 -0.257241
v -0.701569 -1.84655 0.505763
vn -0.916379 0.308603 -0.25486
v -0.717943 -1.93274 0.456571
vn -0.908658 0.33137 -0.253883
v -0.726808 -1.976 0.427108
vn -0.818262 0.572222 0.0543229
v -0.729597 -1.96479 0.41113
vn -0.354656 0.556383 0.751396
v -0.734113 -1.93374 0.399173
vn -0.267373 0.189611 0.944731
v -0.72991 -1.93329 0.400273
vn -0.268075 0.196234 0.943175
v -0.73881 -1.832 0.390203
vn -0.268471 0.0468764 0.962127
f 1//1 2//2 3//3
f 4//4 5//5 2//2
f 6//6 7//7 5//5
f 8//8 9//9 10//10
f 11//11 10//10 7//7
f 4//4 2//2 1//1
f 12//12 5//5 4//4
f 11//11 7//7 6//6
f 6//6 5//5 12//12
f 11//11 8//8 10//10
f 13//13 4//4 1//1
f 13//13 12//12 4//4
f 14//14 11//11 6//6
f 15//15 6//6 12//12
f 16//16 8//8 11//11
f 13//13 1//1 17//17
f 15//15 12//12 13//13
f 14//14 6//6 15//15
f 16//16 11//11 14//14
f 16//16 18//18 8//8
f 19//19 13//13 17//17
f 19//19 15//15 13//13
f 20//20 14//14 15//15
f 20//20 16//16 14//14
f 21//21 18//18 16//16
f 19//19 17//17 22//22
f 23//23 15//15 19//19
f 20//20 15//15 23//23
f 21//21 16//16 20//20
f 21//21 24//24 18//18
f 25//25 19//19 22//22
f 25//25 23//23 19//19
f 26//26 20//20 23//23
f 26//26 21//21 20//20
f 27//27 24//24 21//21
f 25//25 22//22 28//28
f 29//29 23//23 25//25
f 26//26 23//23 29//29
f 27//27 21//21 26//26
f 27//27 30//30 24//24
f 31//31 25//25 28//28
f 31//31 29//29 25//25
f 32//32 26//26 29//29
f 33//33 27//27 26//26
f 34//34 30//30 27//27
f 31//31 28//28 35//35
f 32//32 29//29 31//31
f 32//32 33//33 26//26
f 34//34 27//27 33//33
f 34//34 36//36 30//30
f 37//37 31//31 35//35
f 38//38 32//32 31//31
f 39//39 33//33 32//32
f 39//39 34//34 33//33
f 40//40 36//36 34//34
f 37//37 38//38 31//31
f 41//41 37//37 35//35
f 39//39 32//32 38//38
f 40//40 34//34 39//39
f 40//40 42//42 36//36
f 40//40 38//38 37//37
f 42//42 37//37 41//41
f 42//42 40//40 37//37
f 43//43 44//44 45//45
f 44//44 43//43 46//46
f 45//45 44//44 47//47
f 48//48 46//46 43//43
f 46//46 49//49 44//44
f 45//45 47//47 50//50
f 47//47 44//44 51//51
f 48//48 52//52 46//46
f 46//46 52//52 49//49
f 53//53 44//44 49//49
f 50//50 47//47 54//54
f 54//54 47//47 51//51
f 44//44 53//53 51//51
f 55//55 52//52 48//48
f 52//52 56//56 49//49
f 57//57 53//53 49//49
f 54//54 51//51 58//58
f 51//51 53//53 59//59
f 52//52 55//55 60//60
f 56//56 52//52 61//61
f 49//49 56//56 62//62
f 57//57 49//49 62//62
f 53//53 57//57 59//59
f 58//58 51//51 59//59
f 52//52 60//60 61//61
f 56//56 61//61 63//63
f 56//56 64//64 62//62
f 65//65 57//57 62//62
f 59//59 57//57 65//65
f 56//56 63//63 66//66
f 64//64 56//56 66//66
f 59//59 65//65 67//67
f 68//68 64//64 66//66
f 64//64 68//68 69//69
f 68//68 66//66 70//70
f 67//67 68//68 71//71
f 69//69 68//68 67//67
f 66//66 72//72 70//70
f 71//71 68//68 70//70
f 72//72 66//66 73//73
f 72//72 74//74 70//70
f 73//73 75//75 72//72
f 72//72 76//76 74//74
f 74//74 77//77 70//70
f 72//72 75//75 76//76
f 75//75 73//73 78//78
f 74//74 79//79 77//77
f 76//76 75//75 80//80
f 75//75 78//78 81//81
f 82//82 79//79 74//74
f 76//76 80//80 82//82
f 75//75 81//81 80//80
f 81//81 78//78 83//83
f 82//82 84//84 79//79
f 82//82 80//80 84//84
f 80//80 81//81 85//85
f 81//81 83//83 86//86
f 84//84 87//87 79//79
f 79//79 87//87 88//88
f 80//80 85//85 84//84
f 81//81 86//86 85//85
f 86//86 83//83 89//89
f 84//84 85//85 87//87
f 87//87 90//90 88//88
f 85//85 86//86 91//91
f 86//86 89//89 92//92
f 85//85 91//91 87//87
f 87//87 91//91 90//90
f 88//88 90//90 93//93
f 86//86 94//94 91//91
f 86//86 92//92 94//94
f 92//92 89//89 95//95
f 91//91 94//94 90//90
f 90//90 96//96 93//93
f 93//93 96//96 95//95
f 92//92 95//95 96//96
f 95//95 89//89 97//97
f 90//90 94//94 96//96
f 98//98 99//99 100//100
f 100//100 99//99 101//101
f 63//63 102//102 66//66
f 103//103 102//102 63//63
f 66//66 102//102 73//73
f 103//103 104//104 102//102
f 105//105 103//103 63//63
f 102//102 106//106 73//73
f 105//105 104//104 103//103
f 104//104 106//106 102//102
f 107//107 105//105 63//63
f 73//73 106//106 78//78
f 28//28 104//104 105//105
f 104//104 108//108 106//106
f 107//107 109//109 105//105
f 61//61 107//107 63//63
f 106//106 110//110 78//78
f 28//28 105//105 109//109
f 28//28 111//111 104//104
f 111//111 108//108 104//104
f 108//108 110//110 106//106
f 112//112 109//109 107//107
f 35//35 107//107 61//61
f 78//78 110//110 83//83
f 112//112 28//28 109//109
f 111//111 22//22 108//108
f 108//108 17//17 110//110
f 35//35 112//112 107//107
f 113//113 35//35 61//61
f 110//110 1//1 83//83
f 22//22 17//17 108//108
f 17//17 1//1 110//110
f 83//83 1//1 89//89
f 114//114 115//115 9//9
f 114//114 9//9 8//8
f 116//116 114//114 8//8
f 116//116 8//8 18//18
f 117//117 116//116 18//18
f 117//117 18//18 24//24
f 118//118 117//117 24//24
f 118//118 24//24 30//30
f 119//119 118//118 30//30
f 119//119 30//30 36//36
f 42//42 119//119 36//36
f 120//120 119//119 42//42
f 120//120 42//42 121//121
f 42//42 41//41 121//121
f 122//122 121//121 41//41
f 122//122 41//41 123//123
f 124//124 122//122 123//123
f 124//124 123//123 54//54
f 58//58 124//124 54//54
